<svg width="64" height="65" viewBox="0 0 64 65" fill="none" xmlns="http://www.w3.org/2000/svg">
<path d="M38.959 64.6242C36.865 64.1762 35.0283 63.0127 33.4943 61.6119C31.9464 61.3278 33.5361 64.9585 31.6333 63.5577C28.6418 62.2238 25.6747 60.6892 23.3928 58.349C22.3701 57.4697 21.3475 56.1825 20.2691 55.6409C20.2552 56.4801 20.1091 58.4158 19.0551 56.9448C17.469 55.2097 16.3141 53.1235 15.9071 50.8367C15.4619 49.1484 15.1488 47.3364 14.8914 45.6714C14.1435 46.3735 12.7904 48.0184 12.9191 45.9088C12.7695 42.3683 13.2078 38.5337 15.7297 35.7554C16.7872 34.368 18.3455 33.4018 19.3334 31.9742C17.9107 31.1117 19.5352 29.7644 20.6239 29.2228C21.1805 28.9419 21.6884 28.6411 21.2501 28.0125C20.617 26.0467 20.2344 23.8836 20.777 21.861C21.424 20.5638 22.5197 19.4472 22.7041 17.9528C23.1006 16.6222 23.1598 15.3116 21.3614 15.5724C17.6916 14.9338 14.0148 14.2117 10.4981 13.0148C9.71194 12.0647 12.7313 11.4502 13.5278 10.7882C20.2378 7.45537 26.9096 3.77247 34.3674 2.21788C38.4477 1.41149 42.6845 0.210268 46.8656 1.05811C50.2084 1.75618 52.2642 4.7273 53.5234 7.56035C55.1896 10.8725 56.1392 14.5226 58.2298 17.6251C59.1899 18.949 60.2439 20.3365 60.5256 21.9579C60.3726 24.676 58.5498 26.8725 57.1028 29.0924C59.3673 30.4364 61.4996 32.0511 62.9606 34.2276C63.5658 34.8227 64.7415 37.0125 63.0301 35.7387C62.5431 35.1637 60.7448 34.5184 60.5291 34.9664C62.6962 36.9256 63.3641 39.8609 63.7536 42.5856C64.0145 45.2903 64.1919 48.0652 63.6249 50.7431C63.0058 52.4047 62.157 48.463 61.7431 50.4723C60.8769 53.0767 59.7012 55.6075 58.1429 57.8976C57.068 58.8237 56.8558 54.9422 55.8714 57.0952C54.393 58.9073 53.1478 60.9232 51.405 62.5246C50.5458 62.3708 50.6189 60.9767 50.3893 60.2245C50.438 59.2817 49.9197 59.8735 49.4849 60.2345C46.8308 62.3742 43.9019 64.7579 40.253 64.7679C39.8182 64.7579 39.3834 64.7111 38.959 64.6242V64.6242Z" fill="black"/>
<path d="M44.1941 63.1665C46.4064 62.1301 48.1387 60.425 50.0901 59.0309C51.3945 58.71 50.6919 62.9659 52.1946 60.863C53.6903 59.1613 54.9809 57.3025 56.3236 55.4904C57.5062 54.5443 57.4541 58.5863 58.4037 56.5669C59.649 54.2534 60.7412 51.8563 61.5204 49.3623C62.1535 47.8478 63.3083 51.4251 63.3536 49.2386C63.924 45.2568 63.2944 41.1179 61.7256 37.4036C61.5343 36.2936 60.0838 35.625 59.9273 34.7624C60.7586 34.3211 61.7569 34.4482 62.6718 34.3312C60.6543 32.5225 58.835 30.209 56.0418 29.5403C54.5634 29.2261 53.1199 29.781 51.7459 30.2457C53.6556 30.9177 55.6418 31.9642 56.3236 33.9367C57.5375 36.8152 55.8122 40.4459 52.692 41.3386C51.3841 41.499 49.3527 41.3686 50.191 43.2943C51.0258 44.7052 51.4815 46.4203 49.6344 47.3396C47.6934 48.5566 44.8863 49.0681 42.9731 47.5168C41.8983 46.7044 40.4999 45.3805 39.3555 46.9117C36.8823 48.6168 32.9899 49.1283 30.7289 46.8214C30.3149 46.447 29.6819 46.1027 30.308 45.5978C31.1393 44.401 31.6089 42.8029 31.1185 41.4221C29.4349 40.8538 27.3791 40.6532 26.2938 39.0384C24.1024 36.4675 24.7981 32.3052 27.6261 30.4396C28.1444 29.6674 29.9149 29.6908 30.1445 29.2428C28.1583 28.2866 25.7616 27.6815 23.6084 28.5073C21.9979 28.9853 20.4917 29.8245 19.4203 31.0916C20.1891 31.1518 21.6709 32.0979 20.1752 32.3185C18.0359 33.8865 16.2132 35.8991 14.8566 38.1324C13.3434 40.3824 13.7435 43.1305 13.5487 45.6714C13.413 46.4838 14.0356 45.2936 14.2757 45.1131C14.6792 44.2004 15.8584 44.0098 15.6392 45.2903C15.681 49.165 16.7036 53.1702 19.1421 56.3129C19.5351 57.0116 19.7682 57.1286 19.716 56.236C19.723 55.3701 19.8899 53.3842 20.9091 54.892C22.7597 57.0851 24.7459 59.2348 27.313 60.6791C28.9061 61.6219 30.5619 62.4644 32.2385 63.2501C32.6386 62.4042 31.7689 59.6929 33.1708 60.201C34.9031 62.5346 37.8041 64.2931 40.8582 64.1962C42.0409 64.1327 43.1505 63.6813 44.1941 63.1665V63.1665Z" fill="#E9E7E7"/>
<path d="M37.4389 47.3397C38.7016 46.8482 39.7382 45.9856 40.6948 45.0763C42.3749 46.6911 44.6081 48.2624 47.116 47.7442C48.4344 47.3798 51.005 46.6075 50.3058 44.9192C48.8796 42.9667 49.9545 40.2487 48.577 38.2661C47.3908 36.7884 45.3629 36.745 43.7315 37.5005C41.0009 38.2829 38.0442 37.5707 35.7379 36.0529C34.1517 35.8757 32.7812 37.5808 32.1412 38.8378C31.2333 40.9407 32.1238 43.3512 31.1463 45.414C30.2176 46.6911 32.4438 47.4433 33.4665 47.6974C34.7848 47.9749 36.1901 47.8311 37.4389 47.3397Z" fill="#E9E7E7"/>
<path d="M53.1269 40.5296C55.5688 39.4831 57.0854 36.4107 55.7045 34.0504C54.9949 32.4055 53.4087 31.1284 51.5164 31.0415C50.1633 30.9479 48.1562 30.8777 47.5161 32.2451C47.9753 33.7595 47.1265 35.2306 46.7509 36.4609C48.671 36.6347 49.7389 38.6841 50.0311 40.3256C50.4067 41.907 52.1773 40.8873 53.1269 40.5296V40.5296Z" fill="#FFE7C6"/>
<path d="M31.3064 39.6369C31.4629 37.7279 33.0352 36.3204 34.5448 35.274C35.1327 33.8865 35.4353 31.6867 33.6787 30.9479C31.195 29.1525 27.2331 30.199 26.0573 32.9638C24.2903 35.9393 26.5582 40.3156 30.1724 40.5162C30.8054 40.6098 31.4698 40.3691 31.3064 39.6369V39.6369Z" fill="#FFE7C6"/>
<path d="M44.8237 36.531C46.1873 36.0429 47.3874 34.7825 46.9839 33.2981C46.3264 31.0682 43.6097 30.1621 41.4183 30.1521C39.1677 30.1488 36.3362 30.8776 35.571 33.1811C35.1188 35.2171 37.3346 36.6848 39.1712 37.0024C41.0357 37.2765 43.0671 37.2565 44.8237 36.531V36.531Z" fill="#FFE7C6"/>
<path d="M37.4319 30.4932C39.5955 29.3064 42.3157 29.1192 44.5523 30.2325C46.1003 31.3491 47.8604 31.3725 49.4953 30.4598C50.3475 30.3796 51.9302 29.8146 50.2918 29.3231C49.37 28.8818 47.3699 27.7284 47.5717 29.6106C46.8621 31.2087 45.0324 30.0252 44.4967 29.0256C43.6305 30.1589 43.0635 28.6846 44.2428 28.3636C45.8011 27.2804 47.8743 27.2637 49.5127 28.2031C49.8396 28.2901 50.9771 29.0891 50.6779 28.621C49.697 27.1032 48.5352 25.1809 46.469 25.0806C44.7054 25.124 44.1245 26.9695 43.0253 27.9457C41.3173 28.5642 42.4026 25.6389 42.4757 24.7596C42.9105 23.2518 43.5227 21.4532 45.1854 20.838C45.1889 19.9253 42.6566 20.3198 41.7174 20.1493C40.6356 20.1393 39.5572 20.1326 38.4754 20.1226C39.7346 21.4331 41.3556 22.7202 41.3591 24.6627C41.2721 25.6523 41.9156 28.2767 40.2529 27.9424C38.7328 27.1567 37.818 25.2678 35.9674 25.1474C34.8995 25.2711 33.1499 26.2507 33.4351 27.3105C35.0665 27.4442 36.7536 27.3272 38.3259 27.8855C39.0772 27.7919 40.9243 29.2796 39.2477 29.0657C38.2772 28.6879 36.2909 27.3339 36.4057 29.3164C35.4839 30.9479 33.4942 29.9383 33.6125 28.3369C32.7325 28.1129 31.835 28.7715 30.9619 28.9821C30.7323 29.2128 32.2489 29.3733 32.5585 29.6474C34.1169 30.1188 35.1952 32.3621 36.8232 30.7874C37.0284 30.6905 37.2301 30.5902 37.4319 30.4932V30.4932Z" fill="#FFE7C6"/>
<path d="M52.5494 28.504C51.398 27.2135 51.2728 25.4516 50.8936 23.8837C49.8849 21.9011 47.0743 20.3198 44.9141 21.6236C43.2723 22.8439 42.8236 24.997 42.5801 26.8692C42.9418 28.4973 43.5819 25.6957 44.3541 25.5051C45.3872 24.4152 47.2378 24.1043 48.4552 25.1006C50.0275 26.0835 50.511 28.0192 52.0102 29.049C52.6816 29.2295 53.5756 29.293 52.5494 28.504V28.504Z" fill="#E9E7E7"/>
<path d="M55.2453 27.4175C54.0591 25.5018 52.3999 23.9238 50.838 22.2957C51.492 24.2381 51.8781 26.2942 52.9147 28.0861C53.6208 29.0757 54.9809 28.7414 56.0488 28.8149C55.7809 28.3502 55.5131 27.8822 55.2453 27.4175Z" fill="#FFE7C6"/>
<path d="M25.3512 27.4743C26.6904 26.7387 26.9269 24.9802 28.1514 24.0575C31.1429 20.9215 35.6927 19.5341 40.0373 19.6444C43.5923 19.5976 47.3943 19.6712 50.4415 21.6671C52.786 23.1147 54.6261 25.2644 56.0175 27.5645C56.8001 29.7008 57.8819 26.6585 58.5359 25.8695C59.5342 24.4185 60.1951 22.6065 59.5412 20.8914C58.1985 17.2473 54.4417 15.0441 50.8485 13.7603C46.2012 12.18 41.1087 12.171 36.2945 12.958C32.4229 13.8272 28.861 15.7028 25.5842 17.819C23.6224 19.2031 21.264 20.8045 21.1179 23.3621C20.9265 25.1006 21.4518 26.7922 21.9318 28.4471C23.0589 28.0827 24.165 27.6147 25.3512 27.4743V27.4743Z" fill="#E9E7E7"/>
<path d="M30.5584 26.2874C30.955 24.7696 31.6541 23.3554 32.2351 21.9044C30.9237 22.2087 29.901 23.3052 28.8644 24.1176C27.9391 24.9568 25.7755 27.1466 27.8313 27.8219C28.9931 28.1061 30.1167 27.277 30.5584 26.2874V26.2874Z" fill="#FFE7C6"/>
<path d="M32.9551 26.5047C33.9256 25.3479 35.5536 23.9906 37.1815 24.8197C38.6042 25.1306 39.3347 27.5845 40.6843 27.1432C41.4983 25.485 40.6565 23.5426 39.686 22.115C38.6703 20.5136 36.3501 19.982 34.7013 21.0017C32.9725 21.8041 31.9812 23.469 31.5394 25.2008C31.5081 26.2673 30.1341 27.4241 30.1898 28.1328C31.3968 28.3301 32.2281 27.2402 32.9551 26.5047Z" fill="#E9E7E7"/>
<path d="M25.8138 16.9899C31.1116 13.3458 37.6929 11.2987 44.2324 11.9149C48.0692 12.2445 51.9859 13.0416 55.2174 15.1679C56.0036 15.7964 56.5219 15.656 55.9897 14.7266C54.6609 11.4228 53.3739 8.06919 51.5163 5.00011C50.2154 2.82735 47.7735 1.39043 45.1577 1.32524C40.5939 1.1457 36.1449 2.39239 31.762 3.45286C25.0799 5.25887 19.0691 8.681 12.9121 11.6732C12.2964 11.9801 11.6808 12.2873 11.0651 12.5936C14.1261 13.8439 17.4689 14.2618 20.7144 14.8469C21.4344 14.9505 22.1614 15.0408 22.885 15.1378C23.045 13.2589 22.8467 11.3004 23.5076 9.49942C24.5129 8.53189 23.4172 10.9892 23.5632 11.5461C23.4415 12.5635 23.3754 13.5865 23.285 14.6062C24.4259 12.4933 25.3199 10.2162 26.8226 8.31124C27.6574 8.51818 25.9425 10.2165 25.7512 10.9273C24.6729 13.2355 23.6467 15.6359 23.2815 18.1534C23.5215 18.9323 25.2781 17.1337 25.8138 16.9899V16.9899Z" fill="#FF0000"/>
<path d="M7.44045 18.9724C7.07173 18.2904 7.5622 17.0968 7.88569 18.4174C8.22659 19.0292 8.11875 20.0857 7.44045 18.9724Z" fill="black"/>
<path d="M5.56557 18.1165C5.48557 16.5118 6.5952 17.4713 6.23692 18.5077C6.05603 19.7881 5.4647 18.7116 5.56557 18.1165Z" fill="black"/>
<path d="M9.1102 18.3807C8.48407 17.9026 8.66843 16.0705 9.25977 17.5616C9.465 17.8792 10.1085 19.2934 9.1102 18.3807Z" fill="black"/>
<path d="M3.69759 17.5315C3.6002 16.7191 4.64721 15.8967 4.34459 17.2105C4.30632 18.0096 3.40192 19.3636 3.69759 17.5315Z" fill="black"/>
<path d="M2.14627 16.9565C3.07851 15.1645 3.15503 17.9093 1.98278 17.7221C1.90278 17.458 2.05931 17.1939 2.14627 16.9565Z" fill="black"/>
<path d="M10.4007 16.465C8.75187 15.1678 11.9903 16.2912 11.2946 16.9565C10.9537 16.8796 10.6685 16.6723 10.4007 16.465Z" fill="black"/>
<path d="M0.219116 16.5152C0.337385 15.6794 3.44367 15.0776 1.65225 16.1441C1.23483 16.3313 0.688711 16.6924 0.219116 16.5152Z" fill="black"/>
<path d="M10.4354 14.8101C11.0024 14.0044 13.166 15.1177 11.305 15.1076C11.0337 15.0742 10.5676 15.1143 10.4354 14.8101Z" fill="black"/>
<path d="M0 14.1616C0.497423 13.4261 3.25239 14.2351 1.25574 14.4357C0.852234 14.419 0.271322 14.5026 0 14.1616Z" fill="black"/>
<path d="M0.869677 12.4344C-0.507802 11.6624 3.63159 12.4598 1.80539 12.7139C1.48189 12.6637 1.1723 12.5567 0.869677 12.4344Z" fill="black"/>
<path d="M2.24365 10.5683C0.695728 9.52553 4.87338 10.8117 2.97413 11.0236C2.7028 10.9143 2.46975 10.7421 2.24365 10.5683Z" fill="black"/>
<path d="M10.3902 10.4172C10.7937 9.64253 12.6269 9.66192 11.319 10.4974C10.7207 10.9912 9.02319 11.3847 10.3902 10.4172Z" fill="black"/>
<path d="M8.94313 10.5385C8.92574 9.85651 9.77449 8.05785 10.3241 8.35206C10.0632 9.08489 9.72927 10.3085 8.94313 10.5385Z" fill="black"/>
<path d="M3.36023 9.14836C2.17754 8.07485 3.27327 8.16612 3.95853 8.89895C5.23513 9.79962 3.96201 10.0647 3.36023 9.14836Z" fill="black"/>
<path d="M7.66663 9.17475C7.83707 8.60373 8.50494 7.5777 8.72061 7.33899C8.43537 7.99827 8.65104 9.9223 7.66663 9.17475Z" fill="black"/>
<path d="M6.46307 8.33959C5.98999 7.61444 6.85265 5.52861 6.91178 7.35301C6.93961 7.68399 6.88048 10.2773 6.46307 8.33959Z" fill="black"/>
<path d="M4.86288 7.89938C4.09762 6.90477 4.99506 6.3167 5.37422 7.55235C5.90991 8.53359 5.58293 9.47571 4.86288 7.89938Z" fill="black"/>
<path d="M34.4872 24.5022C33.7249 24.5022 32.9844 24.7488 32.4289 25.1876C31.8733 25.6265 31.548 26.2218 31.5247 26.8425L31.5027 27.4275H30.7841C30.5935 27.4275 30.4084 27.4892 30.2695 27.5989C30.1306 27.7086 30.0493 27.8574 30.0434 28.0126C30.0376 28.1678 30.1077 28.3166 30.2384 28.4263C30.369 28.536 30.5495 28.5976 30.7401 28.5976H31.4587L31.4367 29.1827C31.4134 29.8034 31.6938 30.3986 32.2164 30.8375C32.739 31.2764 33.4609 31.523 34.2233 31.523H35.6605C36.8041 31.523 37.9147 31.1531 38.7481 30.4948C39.5815 29.8365 40.0693 28.9436 40.1044 28.0126C40.116 27.7022 40.2786 27.4046 40.5564 27.1852C40.8342 26.9657 41.2044 26.8425 41.5856 26.8425C41.9668 26.8425 42.3278 26.9657 42.589 27.1852C42.8503 27.4046 42.9906 27.7022 42.9789 28.0126C42.9439 28.9436 43.3646 29.8365 44.1485 30.4948C44.9323 31.1531 46.0152 31.523 47.1587 31.523H48.596C49.3584 31.523 50.0988 31.2764 50.6544 30.8375C51.21 30.3986 51.5352 29.8034 51.5586 29.1827L51.5806 28.5976H52.2992C52.4898 28.5976 52.6749 28.536 52.8138 28.4263C52.9527 28.3166 53.034 28.1678 53.0398 28.0126C53.0457 27.8574 52.9756 27.7086 52.8449 27.5989C52.7143 27.4892 52.5338 27.4275 52.3432 27.4275H51.6246L51.6466 26.8425C51.6699 26.2218 51.3894 25.6265 50.8668 25.1876C50.3443 24.7488 49.6224 24.5022 48.86 24.5022H45.9854C45.3896 24.502 44.8028 24.6526 44.3061 24.9331C43.8094 25.2135 43.4274 25.6101 43.213 26.0678C42.7502 25.8095 42.1989 25.6717 41.6296 25.6723C41.0604 25.6717 40.4988 25.8095 40.0165 26.0678C39.8365 25.6101 39.4843 25.2135 39.0087 24.9331C38.5332 24.6526 37.9576 24.502 37.3618 24.5022H34.4872ZM34.4432 25.6723H35.7957C36.1752 25.6723 36.2802 26.0889 35.9358 26.227L35.269 26.4938C34.7045 26.7202 34.2398 27.0872 33.9447 27.5399L33.5969 28.0746C33.4169 28.3508 32.909 28.2525 32.9206 27.9424L32.962 26.8425C32.9736 26.5321 33.1363 26.2345 33.4141 26.015C33.6918 25.7956 34.0621 25.6723 34.4432 25.6723V25.6723Z" fill="#030303"/>
<path d="M9.58765 13.305C9.58765 14.7196 8.24416 15.981 6.43524 15.981C4.62632 15.981 3.28284 14.7196 3.28284 13.305C3.28284 11.8903 4.62632 10.6289 6.43524 10.6289C8.24416 10.6289 9.58765 11.8903 9.58765 13.305Z" fill="#E9E7E7" stroke="black"/>
</svg>
